<svg width="18" height="20" viewBox="0 0 18 20" fill="none" xmlns="http://www.w3.org/2000/svg">
<path d="M7.803 0.927508C8.14062 0.650961 8.56358 0.499847 9 0.499847C9.43643 0.499847 9.85939 0.650961 10.197 0.927508L16.7845 6.29851C17.0087 6.48228 17.1891 6.71359 17.3129 6.9757C17.4366 7.23781 17.5005 7.52416 17.5 7.81401V17.5565C17.5 18.63 16.644 19.5 15.5875 19.5H12.9125C11.856 19.5 11 18.63 11 17.5565V12.9435C11 12.5855 10.715 12.2955 10.3625 12.2955H7.6375C7.2855 12.2955 7 12.5855 7 12.9435V17.5565C7 18.63 6.144 19.5 5.0875 19.5H2.4125C1.3565 19.5 0.500003 18.63 0.500003 17.5565V7.81401C0.499461 7.52416 0.563378 7.23781 0.687125 6.9757C0.810872 6.71359 0.991354 6.48228 1.2155 6.29851L7.803 0.927508ZM9.399 1.93801C9.28644 1.84589 9.14546 1.79555 9 1.79555C8.85455 1.79555 8.71357 1.84589 8.601 1.93801L2.0135 7.30851C1.93876 7.36982 1.87859 7.44698 1.83734 7.53441C1.79609 7.62183 1.7748 7.71734 1.775 7.81401V17.5565C1.775 17.9145 2.06 18.2045 2.4125 18.2045H5.0875C5.4395 18.2045 5.725 17.9145 5.725 17.5565V12.9435C5.725 11.87 6.5815 11 7.6375 11H10.3625C11.4185 11 12.275 11.87 12.275 12.9435V17.5565C12.275 17.9145 12.56 18.2045 12.9125 18.2045H15.5875C15.9395 18.2045 16.225 17.9145 16.225 17.5565V7.81401C16.2253 7.7174 16.204 7.62194 16.1628 7.53459C16.1215 7.44723 16.0613 7.37017 15.9865 7.30901L9.399 1.93801Z" fill="white"/>
</svg>
