<svg width="22" height="22" viewBox="0 0 22 22" fill="none" xmlns="http://www.w3.org/2000/svg">
<path d="M14.5213 11.1004C15.8751 11.7402 17.0293 12.7362 17.8606 13.9816C18.6918 15.227 19.1688 16.675 19.2403 18.1706C19.2498 18.3076 19.2318 18.4452 19.1873 18.5751C19.1429 18.7051 19.0729 18.8248 18.9816 18.9274C18.8902 19.03 18.7793 19.1132 18.6554 19.1723C18.5314 19.2315 18.3969 19.2652 18.2597 19.2716C18.1225 19.278 17.9854 19.257 17.8564 19.2097C17.7275 19.1624 17.6093 19.0898 17.5088 18.9962C17.4083 18.9026 17.3275 18.7899 17.2711 18.6647C17.2147 18.5394 17.184 18.4042 17.1806 18.2669C17.1056 16.6781 16.4217 15.1792 15.2708 14.0813C14.12 12.9835 12.5905 12.371 11 12.371C9.40942 12.371 7.87996 12.9835 6.72908 14.0813C5.5782 15.1792 4.8943 16.6781 4.81934 18.2669C4.80082 18.5358 4.67773 18.7868 4.47644 18.9661C4.27515 19.1454 4.01166 19.2387 3.74239 19.2261C3.47312 19.2136 3.21948 19.096 3.03579 18.8988C2.8521 18.7015 2.75295 18.4401 2.75959 18.1706C2.8309 16.6751 3.30757 15.2271 4.13858 13.9817C4.96959 12.7363 6.12365 11.7403 7.47722 11.1004C6.60961 10.3767 5.98598 9.40333 5.69116 8.31266C5.39634 7.22201 5.44465 6.067 5.82951 5.00477C6.21436 3.94254 6.91709 3.02464 7.84209 2.37593C8.7671 1.72722 9.86947 1.3792 10.9993 1.3792C12.1291 1.3792 13.2315 1.72722 14.1565 2.37593C15.0815 3.02464 15.7842 3.94254 16.1691 5.00477C16.5539 6.067 16.6022 7.22201 16.3074 8.31266C16.0126 9.40333 15.389 10.3767 14.5213 11.1004ZM14.4375 6.875C14.4375 5.96332 14.0753 5.08898 13.4306 4.44432C12.786 3.79966 11.9116 3.4375 11 3.4375C10.0883 3.4375 9.21394 3.79966 8.56929 4.44432C7.92463 5.08898 7.56247 5.96332 7.56247 6.875C7.56247 7.78668 7.92463 8.66102 8.56929 9.30568C9.21394 9.95034 10.0883 10.3125 11 10.3125C11.9116 10.3125 12.786 9.95034 13.4306 9.30568C14.0753 8.66102 14.4375 7.78668 14.4375 6.875Z" fill="#0141EB"/>
</svg>
