<svg width="24" height="24" viewBox="0 0 24 24" fill="none" xmlns="http://www.w3.org/2000/svg">
<path d="M18 13L13.293 8.293C13.2002 8.20016 13.0899 8.12651 12.9686 8.07626C12.8473 8.02601 12.7173 8.00015 12.586 8.00015C12.4547 8.00015 12.3247 8.02601 12.2034 8.07626C12.0821 8.12651 11.9718 8.20016 11.879 8.293C11.7862 8.38585 11.7125 8.49607 11.6623 8.61738C11.612 8.73868 11.5862 8.8687 11.5862 9C11.5862 9.1313 11.612 9.26132 11.6623 9.38263C11.7125 9.50393 11.7862 9.61416 11.879 9.707L14.172 12L6.586 12C6.32078 12 6.06643 12.1054 5.87889 12.2929C5.69136 12.4804 5.586 12.7348 5.586 13C5.586 13.2652 5.69136 13.5196 5.87889 13.7071C6.06643 13.8946 6.32078 14 6.586 14L14.172 14L11.879 16.293C11.7858 16.3857 11.7119 16.4958 11.6614 16.6171C11.6109 16.7385 11.585 16.8686 11.585 17C11.585 17.1314 11.6109 17.2615 11.6614 17.3829C11.7119 17.5042 11.7858 17.6143 11.879 17.707C11.9718 17.7999 12.082 17.8737 12.2033 17.924C12.3246 17.9743 12.4547 18.0002 12.586 18.0002C12.7173 18.0002 12.8474 17.9743 12.9687 17.924C13.09 17.8737 13.2002 17.7999 13.293 17.707L18 13Z" fill="#0141EB"/>
</svg>
